<svg width="124" height="124" viewBox="0 0 124 124" fill="none" xmlns="http://www.w3.org/2000/svg">
<path d="M7.75 48.4375L50.375 7.75H73.625L31 48.4375H7.75Z" fill="#99A2B9"/>
<path d="M31.0001 49.4062H7.75012C7.55692 49.4059 7.36824 49.3478 7.20833 49.2393C7.04841 49.1309 6.92457 48.9772 6.85271 48.7978C6.78085 48.6185 6.76425 48.4218 6.80505 48.2329C6.84586 48.0441 6.94219 47.8717 7.08168 47.7381L49.7067 7.05056C49.8866 6.87817 50.126 6.78172 50.3751 6.78125H73.6251C73.8185 6.78123 74.0074 6.83908 74.1676 6.94735C74.3279 7.05562 74.452 7.20935 74.5241 7.38878C74.5962 7.5682 74.613 7.76509 74.5722 7.95412C74.5315 8.14314 74.4351 8.31565 74.2955 8.44944L31.6705 49.1369C31.4901 49.3098 31.2499 49.4063 31.0001 49.4062ZM10.1681 47.4688H30.6126L71.2071 8.71875H50.7626L10.1681 47.4688Z" fill="#212A41"/>
<path d="M17.422 45.5313C17.2286 45.5313 17.0397 45.4735 16.8795 45.3652C16.7192 45.2569 16.5951 45.1032 16.523 44.9238C16.4509 44.7444 16.4341 44.5475 16.4749 44.3584C16.5156 44.1694 16.612 43.9969 16.7516 43.8631L51.2585 10.9256C51.3487 10.8301 51.4574 10.7539 51.578 10.7018C51.6986 10.6496 51.8285 10.6225 51.9599 10.6221C52.0913 10.6217 52.2214 10.648 52.3423 10.6995C52.4632 10.751 52.5723 10.8265 52.6631 10.9215C52.7539 11.0165 52.8244 11.129 52.8703 11.2521C52.9163 11.3751 52.9367 11.5063 52.9304 11.6375C52.924 11.7688 52.8911 11.8974 52.8335 12.0154C52.7759 12.1335 52.6949 12.2387 52.5954 12.3245L18.0904 45.262C17.9105 45.4344 17.6711 45.5308 17.422 45.5313Z" fill="#B7C0D7"/>
<path d="M7.75 48.4375H93V114.312C93 114.826 92.7959 115.319 92.4325 115.683C92.0692 116.046 91.5764 116.25 91.0625 116.25H9.6875C9.17364 116.25 8.68083 116.046 8.31748 115.683C7.95413 115.319 7.75 114.826 7.75 114.312V48.4375Z" fill="#99A2B9"/>
<path d="M91.0625 117.219H9.6875C8.91671 117.219 8.1775 116.913 7.63247 116.368C7.08744 115.823 6.78125 115.083 6.78125 114.312V48.4375C6.78125 48.1806 6.88331 47.9342 7.06499 47.7525C7.24667 47.5708 7.49307 47.4688 7.75 47.4688H93C93.2569 47.4688 93.5033 47.5708 93.685 47.7525C93.8667 47.9342 93.9688 48.1806 93.9688 48.4375V114.312C93.9688 115.083 93.6626 115.823 93.1175 116.368C92.5725 116.913 91.8333 117.219 91.0625 117.219ZM8.71875 49.4062V114.312C8.71875 114.569 8.82081 114.816 9.00249 114.998C9.18417 115.179 9.43057 115.281 9.6875 115.281H91.0625C91.3194 115.281 91.5658 115.179 91.7475 114.998C91.9292 114.816 92.0312 114.569 92.0312 114.312V49.4062H8.71875Z" fill="#212A41"/>
<path d="M31 48.4375H116.25V114.312C116.25 114.826 116.046 115.319 115.683 115.683C115.319 116.046 114.826 116.25 114.312 116.25H32.9375C32.4236 116.25 31.9308 116.046 31.5675 115.683C31.2041 115.319 31 114.826 31 114.312V48.4375Z" fill="#B7C0D7"/>
<path d="M114.312 117.219H32.9375C32.1667 117.219 31.4275 116.913 30.8825 116.368C30.3374 115.823 30.0313 115.083 30.0312 114.312V48.4375C30.0312 48.1806 30.1333 47.9342 30.315 47.7525C30.4967 47.5708 30.7431 47.4688 31 47.4688H116.25C116.507 47.4688 116.753 47.5708 116.935 47.7525C117.117 47.9342 117.219 48.1806 117.219 48.4375V114.312C117.219 115.083 116.913 115.823 116.368 116.368C115.823 116.913 115.083 117.219 114.312 117.219ZM31.9688 49.4062V114.312C31.9688 114.569 32.0708 114.816 32.2525 114.998C32.4342 115.179 32.6806 115.281 32.9375 115.281H114.312C114.569 115.281 114.816 115.179 114.998 114.998C115.179 114.816 115.281 114.569 115.281 114.312V49.4062H31.9688Z" fill="#212A41"/>
<path d="M104.625 60.0625H42.625V116.25H104.625V60.0625Z" fill="#0079A8"/>
<path d="M104.625 117.219H42.625C42.3681 117.219 42.1217 117.117 41.94 116.935C41.7583 116.753 41.6562 116.507 41.6562 116.25V60.0625C41.6562 59.8056 41.7583 59.5592 41.94 59.3775C42.1217 59.1958 42.3681 59.0938 42.625 59.0938H104.625C104.882 59.0938 105.128 59.1958 105.31 59.3775C105.492 59.5592 105.594 59.8056 105.594 60.0625V116.25C105.594 116.507 105.492 116.753 105.31 116.935C105.128 117.117 104.882 117.219 104.625 117.219ZM43.5938 115.281H103.656V61.0312H43.5938V115.281Z" fill="#212A41"/>
<path d="M34.875 113.344C34.6181 113.344 34.3717 113.242 34.19 113.06C34.0083 112.878 33.9062 112.632 33.9062 112.375V52.3125C33.9062 52.0556 34.0083 51.8092 34.19 51.6275C34.3717 51.4458 34.6181 51.3438 34.875 51.3438C35.1319 51.3438 35.3783 51.4458 35.56 51.6275C35.7417 51.8092 35.8438 52.0556 35.8438 52.3125V112.375C35.8438 112.632 35.7417 112.878 35.56 113.06C35.3783 113.242 35.1319 113.344 34.875 113.344Z" fill="#D5DEF5"/>
<path d="M112.375 113.344C112.118 113.344 111.872 113.242 111.69 113.06C111.508 112.878 111.406 112.632 111.406 112.375V52.3125C111.406 52.0556 111.508 51.8092 111.69 51.6275C111.872 51.4458 112.118 51.3438 112.375 51.3438C112.632 51.3438 112.878 51.4458 113.06 51.6275C113.242 51.8092 113.344 52.0556 113.344 52.3125V112.375C113.344 112.632 113.242 112.878 113.06 113.06C112.878 113.242 112.632 113.344 112.375 113.344Z" fill="#99A2B9"/>
<path d="M11.625 113.344C11.3681 113.344 11.1217 113.242 10.94 113.06C10.7583 112.878 10.6562 112.632 10.6562 112.375V52.3125C10.6562 52.0556 10.7583 51.8092 10.94 51.6275C11.1217 51.4458 11.3681 51.3438 11.625 51.3438C11.8819 51.3438 12.1283 51.4458 12.31 51.6275C12.4917 51.8092 12.5938 52.0556 12.5938 52.3125V112.375C12.5938 112.632 12.4917 112.878 12.31 113.06C12.1283 113.242 11.8819 113.344 11.625 113.344Z" fill="#B7C0D7"/>
<path d="M27.125 113.344C26.8681 113.344 26.6217 113.242 26.44 113.06C26.2583 112.878 26.1562 112.632 26.1562 112.375V52.3125C26.1562 52.0556 26.2583 51.8092 26.44 51.6275C26.6217 51.4458 26.8681 51.3438 27.125 51.3438C27.3819 51.3438 27.6283 51.4458 27.81 51.6275C27.9917 51.8092 28.0938 52.0556 28.0938 52.3125V112.375C28.0938 112.632 27.9917 112.878 27.81 113.06C27.6283 113.242 27.3819 113.344 27.125 113.344Z" fill="#7B849B"/>
<path d="M31 48.4375L73.625 7.75L116.25 48.4375H31Z" fill="#B7C0D7"/>
<path d="M116.25 49.4063H31.0001C30.8069 49.406 30.6182 49.3479 30.4583 49.2394C30.2984 49.131 30.1746 48.9773 30.1027 48.7979C30.0308 48.6186 30.0143 48.4219 30.0551 48.233C30.0959 48.0442 30.1922 47.8718 30.3317 47.7382L72.9567 7.05066C73.137 6.87777 73.3772 6.78125 73.6271 6.78125C73.8769 6.78125 74.1171 6.87777 74.2974 7.05066L116.922 47.7382C117.062 47.8721 117.159 48.0448 117.199 48.234C117.24 48.4232 117.223 48.6202 117.151 48.7997C117.078 48.9792 116.954 49.1329 116.793 49.2411C116.633 49.3492 116.444 49.4068 116.25 49.4063ZM33.4181 47.4688H113.824L73.6251 9.08891L33.4181 47.4688Z" fill="#212A41"/>
<path d="M106.578 45.5313C106.328 45.5313 106.088 45.4348 105.907 45.262L72.9544 13.8066C72.7687 13.6289 72.6611 13.3845 72.6555 13.1275C72.6499 12.8704 72.7466 12.6216 72.9244 12.4359C73.1022 12.2501 73.3465 12.1426 73.6036 12.137C73.8606 12.1313 74.1094 12.228 74.2952 12.4058L107.248 43.8631C107.388 43.9969 107.484 44.1694 107.525 44.3584C107.566 44.5474 107.549 44.7443 107.477 44.9237C107.405 45.1032 107.281 45.2569 107.12 45.3652C106.96 45.4734 106.771 45.5313 106.578 45.5313Z" fill="#99A2B9"/>
<path d="M89.125 96.875H69.75V116.25H89.125V96.875Z" fill="#DB8E11"/>
<path d="M89.125 117.219H69.75C69.4931 117.219 69.2467 117.117 69.065 116.935C68.8833 116.753 68.7812 116.507 68.7812 116.25V96.875C68.7812 96.6181 68.8833 96.3717 69.065 96.19C69.2467 96.0083 69.4931 95.9062 69.75 95.9062H89.125C89.3819 95.9062 89.6283 96.0083 89.81 96.19C89.9917 96.3717 90.0938 96.6181 90.0938 96.875V116.25C90.0938 116.507 89.9917 116.753 89.81 116.935C89.6283 117.117 89.3819 117.219 89.125 117.219ZM70.7188 115.281H88.1562V97.8438H70.7188V115.281Z" fill="#212A41"/>
<path d="M96.875 96.875H77.5V116.25H96.875V96.875Z" fill="#F9AC2F"/>
<path d="M96.875 117.219H77.5C77.2431 117.219 76.9967 117.117 76.815 116.935C76.6333 116.753 76.5312 116.507 76.5312 116.25V96.875C76.5312 96.6181 76.6333 96.3717 76.815 96.19C76.9967 96.0083 77.2431 95.9062 77.5 95.9062H96.875C97.1319 95.9062 97.3783 96.0083 97.56 96.19C97.7417 96.3717 97.8438 96.6181 97.8438 96.875V116.25C97.8438 116.507 97.7417 116.753 97.56 116.935C97.3783 117.117 97.1319 117.219 96.875 117.219ZM78.4688 115.281H95.9062V97.8438H78.4688V115.281Z" fill="#212A41"/>
<path d="M96.875 103.656H69.75C69.4931 103.656 69.2467 103.554 69.065 103.373C68.8833 103.191 68.7812 102.944 68.7812 102.688C68.7812 102.431 68.8833 102.184 69.065 102.002C69.2467 101.821 69.4931 101.719 69.75 101.719H96.875C97.1319 101.719 97.3783 101.821 97.56 102.002C97.7417 102.184 97.8438 102.431 97.8438 102.688C97.8438 102.944 97.7417 103.191 97.56 103.373C97.3783 103.554 97.1319 103.656 96.875 103.656Z" fill="#212A41"/>
<path d="M69.75 96.875H50.375V116.25H69.75V96.875Z" fill="#DB8E11"/>
<path d="M69.75 117.219H50.375C50.1181 117.219 49.8717 117.117 49.69 116.935C49.5083 116.753 49.4062 116.507 49.4062 116.25V96.875C49.4062 96.6181 49.5083 96.3717 49.69 96.19C49.8717 96.0083 50.1181 95.9062 50.375 95.9062H69.75C70.0069 95.9062 70.2533 96.0083 70.435 96.19C70.6167 96.3717 70.7188 96.6181 70.7188 96.875V116.25C70.7188 116.507 70.6167 116.753 70.435 116.935C70.2533 117.117 70.0069 117.219 69.75 117.219ZM51.3438 115.281H68.7812V97.8438H51.3438V115.281Z" fill="#212A41"/>
<path d="M77.5 96.875H58.125V116.25H77.5V96.875Z" fill="#F9AC2F"/>
<path d="M77.5 117.219H58.125C57.8681 117.219 57.6217 117.117 57.44 116.935C57.2583 116.753 57.1562 116.507 57.1562 116.25V96.875C57.1562 96.6181 57.2583 96.3717 57.44 96.19C57.6217 96.0083 57.8681 95.9062 58.125 95.9062H77.5C77.7569 95.9062 78.0033 96.0083 78.185 96.19C78.3667 96.3717 78.4688 96.6181 78.4688 96.875V116.25C78.4688 116.507 78.3667 116.753 78.185 116.935C78.0033 117.117 77.7569 117.219 77.5 117.219ZM59.0938 115.281H76.5312V97.8438H59.0938V115.281Z" fill="#212A41"/>
<path d="M77.5 103.656H50.375C50.1181 103.656 49.8717 103.554 49.69 103.373C49.5083 103.191 49.4062 102.944 49.4062 102.688C49.4062 102.431 49.5083 102.184 49.69 102.002C49.8717 101.821 50.1181 101.719 50.375 101.719H77.5C77.7569 101.719 78.0033 101.821 78.185 102.002C78.3667 102.184 78.4688 102.431 78.4688 102.688C78.4688 102.944 78.3667 103.191 78.185 103.373C78.0033 103.554 77.7569 103.656 77.5 103.656Z" fill="#212A41"/>
<path d="M69.75 77.5H50.375V96.875H69.75V77.5Z" fill="#DB8E11"/>
<path d="M69.75 97.8438H50.375C50.1181 97.8438 49.8717 97.7417 49.69 97.56C49.5083 97.3783 49.4062 97.1319 49.4062 96.875V77.5C49.4062 77.2431 49.5083 76.9967 49.69 76.815C49.8717 76.6333 50.1181 76.5312 50.375 76.5312H69.75C70.0069 76.5312 70.2533 76.6333 70.435 76.815C70.6167 76.9967 70.7188 77.2431 70.7188 77.5V96.875C70.7188 97.1319 70.6167 97.3783 70.435 97.56C70.2533 97.7417 70.0069 97.8438 69.75 97.8438ZM51.3438 95.9062H68.7812V78.4688H51.3438V95.9062Z" fill="#212A41"/>
<path d="M77.5 77.5H58.125V96.875H77.5V77.5Z" fill="#F9AC2F"/>
<path d="M77.5 97.8438H58.125C57.8681 97.8438 57.6217 97.7417 57.44 97.56C57.2583 97.3783 57.1562 97.1319 57.1562 96.875V77.5C57.1562 77.2431 57.2583 76.9967 57.44 76.815C57.6217 76.6333 57.8681 76.5312 58.125 76.5312H77.5C77.7569 76.5312 78.0033 76.6333 78.185 76.815C78.3667 76.9967 78.4688 77.2431 78.4688 77.5V96.875C78.4688 97.1319 78.3667 97.3783 78.185 97.56C78.0033 97.7417 77.7569 97.8438 77.5 97.8438ZM59.0938 95.9062H76.5312V78.4688H59.0938V95.9062Z" fill="#212A41"/>
<path d="M77.5 84.2812H50.375C50.1181 84.2812 49.8717 84.1792 49.69 83.9975C49.5083 83.8158 49.4062 83.5694 49.4062 83.3125C49.4062 83.0556 49.5083 82.8092 49.69 82.6275C49.8717 82.4458 50.1181 82.3438 50.375 82.3438H77.5C77.7569 82.3438 78.0033 82.4458 78.185 82.6275C78.3667 82.8092 78.4688 83.0556 78.4688 83.3125C78.4688 83.5694 78.3667 83.8158 78.185 83.9975C78.0033 84.1792 77.7569 84.2812 77.5 84.2812Z" fill="#212A41"/>
<path d="M85.25 36.8125H62V48.4375H85.25V36.8125Z" fill="#E0E0E0"/>
<path d="M85.25 49.4062H62C61.7431 49.4062 61.4967 49.3042 61.315 49.1225C61.1333 48.9408 61.0312 48.6944 61.0312 48.4375V36.8125C61.0312 36.5556 61.1333 36.3092 61.315 36.1275C61.4967 35.9458 61.7431 35.8438 62 35.8438H85.25C85.5069 35.8438 85.7533 35.9458 85.935 36.1275C86.1167 36.3092 86.2188 36.5556 86.2188 36.8125V48.4375C86.2188 48.6944 86.1167 48.9408 85.935 49.1225C85.7533 49.3042 85.5069 49.4062 85.25 49.4062ZM62.9688 47.4688H84.2812V37.7812H62.9688V47.4688Z" fill="#212A41"/>
</svg>
