<svg width="40" height="40" viewBox="0 0 40 40" fill="none" xmlns="http://www.w3.org/2000/svg">
<path d="M29.5249 6.12502C28.8218 5.42277 27.8687 5.02832 26.8749 5.02832C25.8812 5.02832 24.9281 5.42277 24.2249 6.12502L19.9024 10.4375C19.7176 9.60455 19.2542 8.85953 18.5887 8.32547C17.9233 7.7914 17.0957 7.50023 16.2424 7.50002H8.74243C7.74787 7.50002 6.79404 7.89511 6.09078 8.59837C5.38752 9.30163 4.99243 10.2555 4.99243 11.25V31.25C4.99243 32.525 5.62993 33.65 6.60243 34.3275C7.20993 34.7525 7.95243 35.0025 8.74993 35.0025H28.7499C29.7445 35.0025 30.6983 34.6074 31.4016 33.9042C32.1048 33.2009 32.4999 32.2471 32.4999 31.2525V23.7525C32.4997 22.9213 32.2234 22.1137 31.7143 21.4567C31.2052 20.7996 30.4922 20.3303 29.6874 20.1225L33.9499 15.85C34.6529 15.1468 35.0479 14.1931 35.0479 13.1988C35.0479 12.2044 34.6529 11.2507 33.9499 10.5475L29.5249 6.12502ZM19.9924 16.05L23.9424 20H19.9924V16.05ZM17.4924 20H7.49243V11.25C7.49243 10.9185 7.62413 10.6006 7.85855 10.3661C8.09297 10.1317 8.41091 10 8.74243 10H16.2424C16.574 10 16.8919 10.1317 17.1263 10.3661C17.3607 10.6006 17.4924 10.9185 17.4924 11.25V20ZM8.02743 32.275C7.8637 32.159 7.73028 32.0054 7.63847 31.827C7.54666 31.6486 7.49914 31.4507 7.49993 31.25V22.5H17.4924V32.5H8.74243C8.48669 32.4999 8.23714 32.4214 8.02743 32.275ZM19.9924 32.5V22.5H28.7499C29.0815 22.5 29.3994 22.6317 29.6338 22.8661C29.8682 23.1006 29.9999 23.4185 29.9999 23.75V31.25C29.9999 31.5815 29.8682 31.8995 29.6338 32.1339C29.3994 32.3683 29.0815 32.5 28.7499 32.5H19.9924Z" fill="#48B5E5"/>
</svg>
