<svg width="40" height="40" viewBox="0 0 40 40" fill="none" xmlns="http://www.w3.org/2000/svg">
<path d="M16.6666 29.25L13.7166 32.1167C12.943 32.8902 11.8939 33.3248 10.7999 33.3248C9.70593 33.3248 8.65677 32.8902 7.88322 32.1167C7.10968 31.3431 6.6751 30.294 6.6751 29.2C6.6751 28.106 7.10968 27.0569 7.88322 26.2833L15.4499 18.7C16.1926 17.9549 17.1933 17.5238 18.2449 17.4959C19.2966 17.468 20.3187 17.8454 21.0999 18.55L21.2999 18.7167C21.6159 19.0261 22.042 19.1973 22.4842 19.1926C22.9265 19.1879 23.3488 19.0077 23.6582 18.6917C23.9676 18.3756 24.1388 17.9496 24.1341 17.5073C24.1295 17.065 23.9493 16.6427 23.6332 16.3333C23.5387 16.2121 23.4386 16.0953 23.3332 15.9833C21.9105 14.7455 20.0704 14.0947 18.1858 14.1628C16.3012 14.2309 14.5129 15.0128 13.1832 16.35L5.51656 23.9333C4.21382 25.3513 3.50926 27.2178 3.55001 29.1429C3.59077 31.0681 4.37369 32.903 5.73528 34.2646C7.09686 35.6262 8.93183 36.4091 10.857 36.4499C12.7821 36.4906 14.6486 35.7861 16.0666 34.4833L18.9499 31.6667C19.2346 31.3561 19.3911 30.9492 19.3879 30.5279C19.3847 30.1066 19.2221 29.7021 18.9327 29.3959C18.6434 29.0896 18.2488 28.9043 17.8283 28.8772C17.4079 28.8502 16.9928 28.9834 16.6666 29.25ZM34.4832 5.51666C33.0812 4.12334 31.1848 3.34131 29.2082 3.34131C27.2316 3.34131 25.3353 4.12334 23.9332 5.51666L21.0499 8.33333C20.7652 8.64391 20.6087 9.05079 20.6119 9.47211C20.6151 9.89342 20.7777 10.2979 21.067 10.6041C21.3564 10.9104 21.751 11.0957 22.1714 11.1227C22.5919 11.1498 23.007 11.0166 23.3332 10.75L26.2166 7.88333C26.9901 7.10978 28.0393 6.67521 29.1332 6.67521C30.2272 6.67521 31.2763 7.10978 32.0499 7.88333C32.8234 8.65688 33.258 9.70603 33.258 10.8C33.258 11.894 32.8234 12.9431 32.0499 13.7167L24.4832 21.3C23.7405 22.0451 22.7399 22.4762 21.6882 22.5041C20.6365 22.532 19.6144 22.1546 18.8332 21.45L18.6332 21.2833C18.3172 20.9739 17.8912 20.8027 17.4489 20.8074C17.0066 20.8121 16.5843 20.9923 16.2749 21.3083C15.9655 21.6244 15.7943 22.0504 15.799 22.4927C15.8036 22.9349 15.9838 23.3572 16.2999 23.6667C16.4215 23.7899 16.5495 23.9067 16.6832 24.0167C18.1077 25.2507 19.9469 25.8991 21.8304 25.831C23.7138 25.763 25.5015 24.9836 26.8332 23.65L34.4166 16.0667C35.8188 14.6735 36.6128 12.782 36.6253 10.8054C36.6378 8.82877 35.8677 6.92748 34.4832 5.51666Z" fill="#48B5E5"/>
</svg>
