<svg width="75" height="75" viewBox="0 0 75 75" fill="none" xmlns="http://www.w3.org/2000/svg">
<path d="M62.9265 16.8398H55.6667V22.914H62.9265V16.8398Z" fill="#F46275"/>
<path d="M62.9268 16.8398H58.6298V22.914H62.9268V16.8398Z" fill="#F48875"/>
<path d="M55.6667 7.31445H19.3333V22.9136H55.6667V7.31445Z" fill="#CECECE"/>
<path d="M23.6303 7.31445H19.3333V22.9136H23.6303V7.31445Z" fill="#AFAFAF"/>
<path d="M55.667 7.31445H51.37V22.9136H55.667V7.31445Z" fill="#E2E2E2"/>
<path d="M62.9268 22.9141H12.0735V57.7894H62.9268V22.9141Z" fill="#CECECE"/>
<path d="M16.3705 22.9141H12.0735V57.7894H16.3705V22.9141Z" fill="#AFAFAF"/>
<path d="M62.9268 22.9141H58.6298V57.7894H62.9268V22.9141Z" fill="#E2E2E2"/>
<path d="M66.9208 57.7893H8.07922V61.2238H66.9208V57.7893Z" fill="#F8AF23"/>
<path d="M12.3762 57.7893H8.07922V61.2238H12.3762V57.7893Z" fill="#F87023"/>
<path d="M66.9211 57.7893H62.6241V61.2238H66.9211V57.7893Z" fill="#F8D323"/>
<path d="M69.1254 61.2236H5.87463V64.6581H69.1254V61.2236Z" fill="#F8AF23"/>
<path d="M10.1716 61.2236H5.87463V64.6581H10.1716V61.2236Z" fill="#F87023"/>
<path d="M69.1254 61.2236H64.8284V64.6581H69.1254V61.2236Z" fill="#F8D323"/>
<path d="M44.492 32.4224H30.508V57.7894H44.492V32.4224Z" fill="#63BCE7"/>
<path d="M33.7236 47.4553H32.8755C32.5722 47.4553 32.3241 47.2071 32.3241 46.9039V43.3077C32.3241 43.0045 32.5722 42.7563 32.8755 42.7563H33.7236C34.0268 42.7563 34.275 43.0045 34.275 43.3077V46.9039C34.2753 47.2071 34.0271 47.4553 33.7236 47.4553Z" fill="#F8AF23"/>
<path d="M15.7348 29.8343H14.0625C12.9639 29.8343 12.0732 28.9437 12.0732 27.845V22.9141H17.7237V27.8453C17.7237 28.9439 16.8331 29.8343 15.7348 29.8343Z" fill="#63BCE7"/>
<path d="M21.385 29.8343H19.713C18.6144 29.8343 17.7238 28.9437 17.7238 27.845V22.9141H23.3742V27.8453C23.3742 28.9439 22.4836 29.8343 21.385 29.8343Z" fill="#63BCE7"/>
<path d="M27.0354 29.8343H25.3635C24.2648 29.8343 23.3742 28.9437 23.3742 27.845V22.9141H29.0244V27.8453C29.0244 28.9439 28.1338 29.8343 27.0354 29.8343Z" fill="#63BCE7"/>
<path d="M32.6856 29.8343H31.0137C29.915 29.8343 29.0244 28.9437 29.0244 27.845V22.9141H34.6749V27.8453C34.6749 28.9439 33.7843 29.8343 32.6856 29.8343Z" fill="#63BCE7"/>
<path d="M38.3362 29.8343H36.6642C35.5656 29.8343 34.6749 28.9437 34.6749 27.845V22.9141H40.3254V27.8453C40.3251 28.9439 39.4345 29.8343 38.3362 29.8343Z" fill="#63BCE7"/>
<path d="M43.9863 29.8343H42.3143C41.2157 29.8343 40.3251 28.9437 40.3251 27.845V22.9141H45.9756V27.8453C45.9756 28.9439 45.0849 29.8343 43.9863 29.8343Z" fill="#63BCE7"/>
<path d="M49.6368 29.8343H47.9648C46.8662 29.8343 45.9756 28.9437 45.9756 27.845V22.9141H51.6261V27.8453C51.6258 28.9439 50.7355 29.8343 49.6368 29.8343Z" fill="#63BCE7"/>
<path d="M55.287 29.8343H53.6147C52.5161 29.8343 51.6255 28.9437 51.6255 27.845V22.9141H57.276V27.8453C57.2763 28.9439 56.3856 29.8343 55.287 29.8343Z" fill="#63BCE7"/>
<path d="M60.9375 29.8343H59.2655C58.1669 29.8343 57.2763 28.9437 57.2763 27.845V22.9141H62.9268V27.8453C62.9265 28.9439 62.0361 29.8343 60.9375 29.8343Z" fill="#63BCE7"/>
<path d="M19.3333 16.8398H12.0735V22.914H19.3333V16.8398Z" fill="#F46275"/>
<path d="M16.3705 16.8398H12.0735V22.914H16.3705V16.8398Z" fill="#F43075"/>
<path d="M25.8941 34.7266H16.6878V46.9498H25.8941V34.7266Z" fill="#F8AF23"/>
<path d="M58.3122 34.7266H49.106V46.9498H58.3122V34.7266Z" fill="#F8AF23"/>
<path d="M49.9034 18.2373H25.0966C24.0229 18.2373 23.1525 17.3669 23.1525 16.2932V13.9354C23.1525 12.8616 24.0229 11.9912 25.0966 11.9912H49.9031C50.9769 11.9912 51.8473 12.8616 51.8473 13.9354V16.2932C51.8476 17.3669 50.9772 18.2373 49.9034 18.2373Z" fill="#F8AF23"/>
<path d="M32.8755 47.8945H33.7239C34.2703 47.8945 34.7147 47.4501 34.7147 46.9037V43.3075C34.7147 42.7611 34.2703 42.3167 33.7239 42.3167H32.8755C32.3291 42.3167 31.8846 42.7611 31.8846 43.3075V46.9037C31.8846 47.4501 32.3291 47.8945 32.8755 47.8945ZM32.7635 43.3075C32.7635 43.2468 32.8148 43.1956 32.8755 43.1956H33.7239C33.7845 43.1956 33.8358 43.2468 33.8358 43.3075V46.9037C33.8358 46.9643 33.7845 47.0156 33.7239 47.0156H32.8755C32.8148 47.0156 32.7635 46.9643 32.7635 46.9037V43.3075Z" fill="#3F3679"/>
<path d="M25.8941 34.2869H16.6878C16.4452 34.2869 16.2484 34.4834 16.2484 34.7263V46.9496C16.2484 47.1924 16.4452 47.389 16.6878 47.389H25.8941C26.1366 47.389 26.3335 47.1924 26.3335 46.9496V34.7263C26.3335 34.4837 26.1366 34.2869 25.8941 34.2869ZM25.4546 46.5101H17.1273V35.1658H25.4546V46.5101Z" fill="#3F3679"/>
<path d="M49.106 47.389H58.3122C58.5548 47.389 58.7517 47.1924 58.7517 46.9496V34.7263C58.7517 34.4834 58.5548 34.2869 58.3122 34.2869H49.106C48.8634 34.2869 48.6665 34.4834 48.6665 34.7263V46.9496C48.6665 47.1921 48.8634 47.389 49.106 47.389ZM49.5454 35.1658H57.8728V46.5101H49.5454V35.1658Z" fill="#3F3679"/>
<path d="M8.00479 67.2458H2.73047C2.48789 67.2458 2.29102 67.4424 2.29102 67.6853C2.29102 67.9282 2.48789 68.1248 2.73047 68.1248H8.00479C8.24736 68.1248 8.44424 67.9282 8.44424 67.6853C8.44424 67.4424 8.24736 67.2458 8.00479 67.2458Z" fill="#3F3679"/>
<path d="M72.2695 67.2458H66.9952C66.7526 67.2458 66.5558 67.4424 66.5558 67.6853C66.5558 67.9282 66.7526 68.1248 66.9952 68.1248H72.2695C72.5121 68.1248 72.709 67.9282 72.709 67.6853C72.709 67.4424 72.5121 67.2458 72.2695 67.2458Z" fill="#3F3679"/>
<path d="M64.0075 67.2458H10.9925C10.7499 67.2458 10.553 67.4424 10.553 67.6853C10.553 67.9282 10.7499 68.1248 10.9925 68.1248H64.0078C64.2504 68.1248 64.4473 67.9282 64.4473 67.6853C64.4473 67.4424 64.2504 67.2458 64.0075 67.2458Z" fill="#3F3679"/>
<path d="M2.73047 65.0976H5.87432H69.1251H72.2689C72.5115 65.0976 72.7084 64.901 72.7084 64.6581C72.7084 64.4152 72.5115 64.2187 72.2689 64.2187H69.5646V61.2236C69.5646 60.9808 69.3677 60.7842 69.1251 60.7842H67.36V57.7892C67.36 57.5463 67.1631 57.3497 66.9205 57.3497H63.3656V27.8451V23.353H67.159C67.4016 23.353 67.5984 23.1564 67.5984 22.9136C67.5984 22.6707 67.4016 22.4741 67.159 22.4741H63.3656V16.8397C63.3656 16.5969 63.1687 16.4003 62.9262 16.4003H56.1059V7.31445C56.1059 7.07158 55.909 6.875 55.6664 6.875H19.3333C19.0907 6.875 18.8938 7.07158 18.8938 7.31445V16.4003H12.0735C11.831 16.4003 11.6341 16.5969 11.6341 16.8397V22.4741H7.84072C7.59814 22.4741 7.40127 22.6707 7.40127 22.9136C7.40127 23.1564 7.59814 23.353 7.84072 23.353H11.6341V27.8451V57.3494H8.0792C7.83662 57.3494 7.63975 57.546 7.63975 57.7889V60.7839H5.87461C5.63203 60.7839 5.43516 60.9805 5.43516 61.2233V64.2187H2.73047C2.48789 64.2187 2.29102 64.4152 2.29102 64.6581C2.29102 64.901 2.48789 65.0976 2.73047 65.0976ZM56.8368 27.8451C56.8368 28.6997 56.1416 29.3949 55.287 29.3949H53.615C52.7604 29.3949 52.0652 28.6997 52.0652 27.8451V23.353H55.6667H56.8368V27.8451ZM51.1863 27.8451C51.1863 28.6997 50.4911 29.3949 49.6368 29.3949H47.9648C47.1103 29.3949 46.415 28.6997 46.415 27.8451V23.353H51.1863V27.8451ZM45.5361 27.8451C45.5361 28.6997 44.8409 29.3949 43.9866 29.3949H42.3144C41.4601 29.3949 40.7648 28.6997 40.7648 27.8451V23.353H45.5361V27.8451ZM39.8859 27.8451C39.8859 28.6997 39.1907 29.3949 38.3361 29.3949H36.6642C35.8096 29.3949 35.1144 28.6997 35.1144 27.8451V23.353H39.8859V27.8451ZM34.2352 27.8451C34.2352 28.6997 33.5399 29.3949 32.6856 29.3949H31.0134C30.1591 29.3949 29.4639 28.6997 29.4639 27.8451V23.353H34.2352V27.8451ZM28.585 27.8451C28.585 28.6997 27.8897 29.3949 27.0352 29.3949H25.3632C24.5089 29.3949 23.8137 28.6997 23.8137 27.8451V23.353H28.585V27.8451ZM22.9348 27.8451C22.9348 28.6997 22.2396 29.3949 21.385 29.3949H19.713C18.8584 29.3949 18.1632 28.6997 18.1632 27.8451V23.353H19.3333H22.9348V27.8451ZM17.2843 27.8451C17.2843 28.6997 16.5891 29.3949 15.7348 29.3949H14.0625C13.2082 29.3949 12.513 28.6997 12.513 27.8451V23.353H17.2843V27.8451ZM57.7157 23.353H62.487V27.8451C62.487 28.6997 61.7918 29.3949 60.9375 29.3949H59.2652C58.4109 29.3949 57.7157 28.6997 57.7157 27.8451V23.353ZM62.487 17.2792V22.4741H57.2763H56.1062V17.2792H62.487ZM19.7728 7.75391H55.2272V16.8397V22.4741H51.6258H45.9756H40.3254H34.6749H29.0244H23.3742H19.7728V16.8397V7.75391ZM12.513 17.2792H18.8938V22.4741H17.7237H12.513V17.2792ZM12.513 29.7131C12.9337 30.0629 13.4739 30.2735 14.0625 30.2735H15.7348C16.5571 30.2735 17.2843 29.8616 17.7237 29.2341C18.1632 29.8616 18.8903 30.2735 19.713 30.2735H21.385C22.2076 30.2735 22.9348 29.8616 23.3742 29.2341C23.8137 29.8616 24.5408 30.2735 25.3632 30.2735H27.0352C27.8578 30.2735 28.585 29.8616 29.0244 29.2341C29.4639 29.8616 30.191 30.2735 31.0134 30.2735H32.6856C33.508 30.2735 34.2352 29.8616 34.6746 29.2341C35.1141 29.8616 35.8412 30.2735 36.6639 30.2735H38.3358C39.1585 30.2735 39.8856 29.8616 40.3251 29.2341C40.7645 29.8616 41.4917 30.2735 42.3141 30.2735H43.9863C44.8087 30.2735 45.5358 29.8616 45.9753 29.2341C46.4147 29.8616 47.1419 30.2735 47.9645 30.2735H49.6365C50.4589 30.2735 51.186 29.8616 51.6255 29.2341C52.0649 29.8616 52.7921 30.2735 53.6147 30.2735H55.2867C56.1094 30.2735 56.8365 29.8616 57.276 29.2341C57.7154 29.8616 58.4426 30.2735 59.2649 30.2735H60.9375C61.5261 30.2735 62.0663 30.0629 62.487 29.7131V57.3494H44.9314V32.4222C44.9314 32.1793 44.7346 31.9827 44.492 31.9827H30.508C30.2654 31.9827 30.0686 32.1793 30.0686 32.4222V57.3494H12.513V29.7131ZM44.0525 57.3494H30.9475V32.8616H44.0525V57.3494ZM8.51865 58.2283H12.0735H30.508H44.492H62.9265H66.4813V60.7839H8.51865V58.2283ZM6.31406 61.6631H8.0792H66.9208H68.6859V64.2187H6.31406V61.6631Z" fill="#3F3679"/>
<path d="M25.0966 18.6768H49.9034C51.2177 18.6768 52.287 17.6074 52.287 16.2932V13.9354C52.287 12.6211 51.218 11.5518 49.9034 11.5518H25.0966C23.7823 11.5518 22.713 12.6211 22.713 13.9354V16.2932C22.713 17.6074 23.7823 18.6768 25.0966 18.6768ZM23.5919 13.9354C23.5919 13.1057 24.2669 12.4307 25.0966 12.4307H49.9034C50.7331 12.4307 51.4081 13.1057 51.4081 13.9354V16.2932C51.4081 17.1229 50.7331 17.7979 49.9034 17.7979H25.0966C24.2669 17.7979 23.5919 17.1229 23.5919 16.2932V13.9354Z" fill="#3F3679"/>
</svg>
