<svg width="124" height="124" viewBox="0 0 124 124" fill="none" xmlns="http://www.w3.org/2000/svg">
<path d="M101.202 32.1917V35.5248V90.0699C101.202 95.7466 96.5565 100.392 90.8798 100.392H33.4033C27.7266 100.392 23.0815 95.7466 23.0815 90.0699V35.4206V32.1917" fill="#FCBA7F"/>
<path d="M90.8796 101.632H33.4031C27.0282 101.632 21.8413 96.4447 21.8413 90.0699V32.1917C21.8413 31.5072 22.3968 30.9517 23.0813 30.9517C23.7658 30.9517 24.3213 31.5072 24.3213 32.1917V90.0699C24.3213 95.077 28.3959 99.1517 33.4031 99.1517H90.8796C95.8867 99.1517 99.9613 95.077 99.9613 90.0699V32.1917C99.9613 31.5072 100.517 30.9517 101.201 30.9517C101.886 30.9517 102.441 31.5072 102.441 32.1917V90.0699C102.441 96.4447 97.2556 101.632 90.8796 101.632Z" fill="#1F212B"/>
<path d="M94.3814 70.0116V80.8988C94.3814 93.1586 88.8274 93.5716 82.0384 93.5716H42.2443C35.4553 93.5716 29.9014 92.8474 29.9014 80.8988V57.6116" fill="#FCBA7F"/>
<path d="M82.0383 94.1917H42.2442C35.1514 94.1917 29.2812 93.191 29.2812 80.8977V57.6117C29.2812 57.2695 29.559 56.9917 29.9013 56.9917C30.2435 56.9917 30.5213 57.2695 30.5213 57.6117V80.8977C30.5213 92.0862 35.3796 92.9517 42.2442 92.9517H82.0383C88.3288 92.9517 93.7613 92.9517 93.7613 80.8977V70.0117C93.7613 69.6695 94.039 69.3917 94.3812 69.3917C94.7235 69.3917 95.0013 69.6695 95.0013 70.0117V80.8977C95.0013 93.2381 89.6283 94.1917 82.0383 94.1917ZM94.3812 65.6717C94.039 65.6717 93.7613 65.3939 93.7613 65.0517V57.6117C93.7613 57.2695 94.039 56.9917 94.3812 56.9917C94.7235 56.9917 95.0013 57.2695 95.0013 57.6117V65.0517C95.0013 65.3939 94.7247 65.6717 94.3812 65.6717Z" fill="#1F212B"/>
<path d="M72.8141 68.7715H50.23C48.5982 68.7715 47.2627 67.436 47.2627 65.8042V64.3001C47.2627 62.6682 48.5982 61.3328 50.23 61.3328H72.8141C74.446 61.3328 75.7815 62.6682 75.7815 64.3001V65.8042C75.7815 67.436 74.446 68.7715 72.8141 68.7715Z" fill="#FEFDEF"/>
<path d="M72.8143 69.3917H50.2302C48.2511 69.3917 46.6416 67.7822 46.6416 65.8031V64.299C46.6416 62.32 48.2511 60.7104 50.2302 60.7104H72.8143C74.7933 60.7104 76.4028 62.32 76.4028 64.299V65.8031C76.4016 67.7822 74.7921 69.3917 72.8143 69.3917ZM50.2302 61.9517C48.9356 61.9517 47.8816 63.0057 47.8816 64.3002V65.8044C47.8816 67.0989 48.9356 68.1529 50.2302 68.1529H72.8143C74.1088 68.1529 75.1628 67.0989 75.1628 65.8044V64.3002C75.1628 63.0057 74.1088 61.9517 72.8143 61.9517H50.2302Z" fill="#1F212B"/>
<path d="M81.9814 51.4116V61.9516L85.7014 58.8516L89.4214 61.9516V51.4116H81.9814Z" fill="#F37E98"/>
<path d="M89.4213 62.5715C89.2787 62.5715 89.1374 62.5219 89.0245 62.4277L85.7013 59.6588L82.3781 62.4277C82.1934 62.5827 81.9355 62.6149 81.7185 62.512C81.5002 62.4103 81.3613 62.1908 81.3613 61.9503V51.4103C81.3613 51.068 81.6391 50.7903 81.9813 50.7903H89.4213C89.7636 50.7903 90.0413 51.068 90.0413 51.4103V61.9503C90.0413 62.1908 89.9024 62.4103 89.6842 62.512C89.6011 62.5517 89.5106 62.5715 89.4213 62.5715ZM85.7013 58.2315C85.8427 58.2315 85.984 58.2799 86.0981 58.3754L88.8013 60.6284V52.0315H82.6013V60.6284L85.3045 58.3754C85.4198 58.2786 85.56 58.2315 85.7013 58.2315Z" fill="#1F212B"/>
<path d="M92.6639 52.0317H31.6187C24.8768 52.0317 19.3613 46.5162 19.3613 39.7743V26.6787C19.3613 25.6185 20.2281 24.7517 21.2883 24.7517H103.032C104.071 24.7517 104.92 25.6023 104.92 26.6402V39.7743C104.921 46.5149 99.4058 52.0317 92.6639 52.0317Z" fill="#FED5B3"/>
<path d="M92.6642 53.2717H31.619C24.1765 53.2717 18.1216 47.2168 18.1216 39.7743V26.6787C18.1216 24.9328 19.5426 23.5117 21.2885 23.5117H103.032C104.758 23.5117 106.16 24.9154 106.16 26.6402V39.7731C106.162 47.2156 100.107 53.2717 92.6642 53.2717ZM21.2885 25.9917C20.9165 25.9917 20.6016 26.3067 20.6016 26.6787V39.7743C20.6016 45.8491 25.5442 50.7917 31.619 50.7917H92.6629C98.7377 50.7917 103.68 45.8491 103.68 39.7743V26.6402C103.68 26.2881 103.383 25.9917 103.032 25.9917H21.2885Z" fill="#1F212B"/>
<path d="M84.4613 29.7117H24.9413C24.599 29.7117 24.3213 29.4339 24.3213 29.0917C24.3213 28.7494 24.599 28.4717 24.9413 28.4717H84.4613C84.8035 28.4717 85.0813 28.7494 85.0813 29.0917C85.0813 29.4339 84.8048 29.7117 84.4613 29.7117ZM93.1413 29.7117H88.1813C87.8391 29.7117 87.5613 29.4339 87.5613 29.0917C87.5613 28.7494 87.8391 28.4717 88.1813 28.4717H93.1413C93.4835 28.4717 93.7613 28.7494 93.7613 29.0917C93.7613 29.4339 93.4848 29.7117 93.1413 29.7117ZM100.581 29.7117H95.6213C95.2791 29.7117 95.0013 29.4339 95.0013 29.0917C95.0013 28.7494 95.2791 28.4717 95.6213 28.4717H100.581C100.924 28.4717 101.201 28.7494 101.201 29.0917C101.201 29.4339 100.925 29.7117 100.581 29.7117ZM60.9013 92.9517C60.559 92.9517 60.2813 92.6739 60.2813 92.3317V70.0117C60.2813 69.6694 60.559 69.3917 60.9013 69.3917C61.2435 69.3917 61.5213 69.6694 61.5213 70.0117V92.3317C61.5213 92.6739 61.2448 92.9517 60.9013 92.9517ZM60.9013 61.9517C60.559 61.9517 60.2813 61.6739 60.2813 61.3317V53.8917C60.2813 53.5494 60.559 53.2717 60.9013 53.2717C61.2435 53.2717 61.5213 53.5494 61.5213 53.8917V61.3317C61.5213 61.6739 61.2448 61.9517 60.9013 61.9517Z" fill="black"/>
</svg>
