<svg width="40" height="40" viewBox="0 0 40 40" fill="none" xmlns="http://www.w3.org/2000/svg">
<path d="M6.66667 1.66669H33.3333C33.7754 1.66669 34.1993 1.84228 34.5118 2.15484C34.8244 2.4674 35 2.89133 35 3.33335V10C35 10.442 34.8244 10.866 34.5118 11.1785C34.1993 11.4911 33.7754 11.6667 33.3333 11.6667H6.66667C6.22464 11.6667 5.80072 11.4911 5.48816 11.1785C5.17559 10.866 5 10.442 5 10V3.33335C5 2.89133 5.17559 2.4674 5.48816 2.15484C5.80072 1.84228 6.22464 1.66669 6.66667 1.66669ZM6.66667 15H33.3333C33.7754 15 34.1993 15.1756 34.5118 15.4882C34.8244 15.8007 35 16.2247 35 16.6667V23.3334C35 23.7754 34.8244 24.1993 34.5118 24.5119C34.1993 24.8244 33.7754 25 33.3333 25H6.66667C6.22464 25 5.80072 24.8244 5.48816 24.5119C5.17559 24.1993 5 23.7754 5 23.3334V16.6667C5 16.2247 5.17559 15.8007 5.48816 15.4882C5.80072 15.1756 6.22464 15 6.66667 15ZM6.66667 28.3334H33.3333C33.7754 28.3334 34.1993 28.5089 34.5118 28.8215C34.8244 29.1341 35 29.558 35 30V36.6667C35 37.1087 34.8244 37.5326 34.5118 37.8452C34.1993 38.1578 33.7754 38.3334 33.3333 38.3334H6.66667C6.22464 38.3334 5.80072 38.1578 5.48816 37.8452C5.17559 37.5326 5 37.1087 5 36.6667V30C5 29.558 5.17559 29.1341 5.48816 28.8215C5.80072 28.5089 6.22464 28.3334 6.66667 28.3334ZM15 8.33335H16.6667V5.00002H15V8.33335ZM15 21.6667H16.6667V18.3334H15V21.6667ZM15 35H16.6667V31.6667H15V35ZM8.33333 5.00002V8.33335H11.6667V5.00002H8.33333ZM8.33333 18.3334V21.6667H11.6667V18.3334H8.33333ZM8.33333 31.6667V35H11.6667V31.6667H8.33333Z" fill="#48B5E5"/>
</svg>
