<svg width="40" height="40" viewBox="0 0 40 40" fill="none" xmlns="http://www.w3.org/2000/svg">
<path d="M6.66659 3.33337H33.3333C34.2173 3.33337 35.0652 3.68456 35.6903 4.30968C36.3154 4.93481 36.6666 5.78265 36.6666 6.66671V26.6667C36.6666 27.5508 36.3154 28.3986 35.6903 29.0237C35.0652 29.6488 34.2173 30 33.3333 30H23.1666L16.9999 36.1834C16.6666 36.5 16.2499 36.6667 15.8333 36.6667H14.9999C14.5579 36.6667 14.134 36.4911 13.8214 36.1786C13.5088 35.866 13.3333 35.4421 13.3333 35V30H6.66659C5.78253 30 4.93468 29.6488 4.30956 29.0237C3.68444 28.3986 3.33325 27.5508 3.33325 26.6667V6.66671C3.33325 5.78265 3.68444 4.93481 4.30956 4.30968C4.93468 3.68456 5.78253 3.33337 6.66659 3.33337ZM20.3166 9.16671C18.8333 9.16671 17.6499 9.46671 16.7499 10.0667C15.8333 10.6667 15.3666 11.6667 15.4499 12.8167H18.7333C18.7333 12.35 18.8999 12 19.1666 11.7667C19.4999 11.5334 19.8666 11.4167 20.3166 11.4167C20.8333 11.4167 21.2833 11.55 21.5833 11.85C21.8833 12.1334 22.0333 12.5 22.0333 13C22.0333 13.4667 21.8999 13.8834 21.6666 14.2334C21.3833 14.6 21.0333 14.9 20.5999 15.1334C19.7333 15.6667 19.1666 16.1334 18.8166 16.5334C18.4999 16.9334 18.3333 17.5 18.3333 18.3334H21.6666C21.6666 17.8667 21.7499 17.5 21.8999 17.2C22.0499 16.9167 22.3333 16.6667 22.7666 16.4167C23.5333 16.0667 24.1666 15.6 24.6499 15C25.1333 14.3834 25.3833 13.7334 25.3833 13C25.3833 11.8334 24.9333 10.9 24.0333 10.2C23.1333 9.51671 21.8833 9.16671 20.3166 9.16671ZM18.3333 20V23.3334H21.6666V20H18.3333Z" fill="#48B5E5"/>
</svg>
