<svg width="40" height="40" viewBox="0 0 40 40" fill="none" xmlns="http://www.w3.org/2000/svg">
<path d="M39.3975 14.6101C39.43 14.6101 39.4775 14.6101 39.4937 14.5613C39.51 14.5451 39.51 14.5301 39.51 14.5138C39.5104 14.4974 39.5062 14.4811 39.4978 14.467C39.4894 14.4528 39.4771 14.4413 39.4625 14.4338C39.43 14.4176 39.3975 14.4176 39.35 14.4176H39.3175V14.5926H39.3975M39.35 14.3376C39.43 14.3376 39.4775 14.3376 39.51 14.3538C39.6225 14.3851 39.6225 14.4976 39.6225 14.5288V14.5776C39.6225 14.6101 39.6063 14.6576 39.5412 14.6901C39.5412 14.6901 39.5262 14.7051 39.51 14.7051L39.6537 14.9613H39.51L39.3975 14.7213H39.3175V14.9613H39.19V14.3376H39.35ZM39.3975 15.2163C39.4711 15.2168 39.544 15.2027 39.6121 15.1748C39.6802 15.1469 39.7421 15.1058 39.7941 15.0538C39.8462 15.0019 39.8875 14.9401 39.9155 14.8721C39.9436 14.804 39.9578 14.7311 39.9575 14.6576C39.9594 14.5835 39.9462 14.5098 39.9187 14.441C39.8912 14.3722 39.8501 14.3098 39.7977 14.2574C39.7453 14.205 39.6828 14.1638 39.614 14.1363C39.5452 14.1089 39.4716 14.0957 39.3975 14.0976C39.2497 14.0995 39.1085 14.1592 39.0041 14.2638C38.8997 14.3684 38.8404 14.5098 38.8387 14.6576C38.8387 14.9613 39.0938 15.2163 39.3975 15.2163ZM38.9663 14.6576C38.9663 14.4176 39.1575 14.2263 39.4137 14.2263C39.6538 14.2263 39.845 14.4176 39.845 14.6576C39.8452 14.7142 39.8341 14.7704 39.8125 14.8228C39.7909 14.8752 39.7591 14.9228 39.7191 14.9629C39.679 15.0029 39.6314 15.0347 39.579 15.0563C39.5266 15.0779 39.4704 15.089 39.4137 15.0888C39.3555 15.0919 39.2973 15.083 39.2427 15.0626C39.1881 15.0423 39.1383 15.0109 39.0963 14.9704C39.0543 14.93 39.0211 14.8813 38.9987 14.8275C38.9764 14.7737 38.9653 14.7158 38.9663 14.6576ZM35.0825 18.2213C34.7326 18.2214 34.3921 18.1077 34.1125 17.8973C33.8329 17.6869 33.6293 17.3913 33.5325 17.0551H37.6075L38.1675 16.1763H33.5325C33.6291 15.8398 33.8326 15.5439 34.1122 15.3333C34.3918 15.1227 34.7324 15.0088 35.0825 15.0088H37.88L38.4388 14.1301H35.0187C33.6437 14.1301 32.5413 15.2488 32.5413 16.6076C32.5413 17.9826 33.66 19.0851 35.0187 19.0851H37.96L38.5187 18.2051H35.0825M23.415 19.0851H26.3713L26.9312 18.2051H23.495C23.2841 18.2062 23.075 18.1658 22.8796 18.0861C22.6843 18.0065 22.5066 17.8891 22.3566 17.7408C22.2067 17.5925 22.0874 17.416 22.0056 17.2216C21.9238 17.0271 21.8811 16.8185 21.88 16.6076C21.88 15.7126 22.6 15.0088 23.495 15.0088H26.2925L26.8513 14.1301H23.4313C22.0563 14.1301 20.9375 15.2488 20.9375 16.6076C20.9375 17.9826 22.0562 19.0851 23.415 19.0851ZM5.30625 18.2226H2.54125C2.11712 18.2222 1.71048 18.0535 1.41069 17.7535C1.1109 17.4535 0.9425 17.0467 0.9425 16.6226C0.9425 15.7288 1.6625 15.0251 2.54125 15.0251H5.29125C6.185 15.0251 6.90375 15.7438 6.90375 16.6238C6.90375 17.5026 6.185 18.2213 5.30625 18.2213M2.4775 19.0838H5.35375C6.72875 19.0838 7.83125 17.9813 7.83125 16.6076C7.83125 15.2338 6.72875 14.1301 5.35375 14.1301H2.4775C1.82124 14.1327 1.1926 14.3946 0.728552 14.8586C0.2645 15.3227 0.00263298 15.9513 0 16.6076C0 17.9826 1.11875 19.0838 2.4775 19.0838ZM12.53 17.4863C12.9751 17.4863 13.4019 17.3095 13.7166 16.9948C14.0313 16.6801 14.2081 16.2532 14.2081 15.8082C14.2081 15.3631 14.0313 14.9363 13.7166 14.6216C13.4019 14.3069 12.9751 14.1301 12.53 14.1301H8.35875V19.0851H9.3175V15.0101H12.4675C12.9137 15.0101 13.2662 15.3601 13.2662 15.8076C13.2662 16.2563 12.9137 16.6076 12.4662 16.6076H9.78125L12.6262 19.0851H14.0175L12.0988 17.4701H12.53M28.305 18.2213V14.1301H27.3463V18.6213C27.3463 18.7496 27.3942 18.8613 27.49 18.9563C27.584 19.0488 27.7106 19.1005 27.8425 19.1001H32.19L32.7487 18.2213H28.305ZM16.6375 17.3426H19.1788L17.8363 15.1688L15.3587 19.0851H14.2237L17.2288 14.3851C17.2945 14.2896 17.383 14.212 17.4862 14.1592C17.5894 14.1064 17.7041 14.0801 17.82 14.0826C18.06 14.0826 18.2675 14.1938 18.395 14.3851L21.4162 19.1001H20.2975L19.77 18.2213H17.1963L16.6375 17.3426ZM0.46375 22.0738H1.72625L3.26 25.2863V22.0738H4.07625V26.1651H2.87625L1.295 22.7601V26.1488H0.46375V22.0738ZM5.0025 22.0738H7.73625V22.7451H5.88125V23.7201H7.62375V24.3913H5.88125V25.4938H7.8V26.1651H5.0025V22.0738ZM9.49375 22.7451H8.27875V22.0738H11.6038V22.7451H10.3888V26.1651H9.51V22.7451H9.49375ZM12.6587 24.9663C12.675 25.2538 12.7062 25.7813 13.6487 25.7813C14.4962 25.7813 14.6088 25.2538 14.6088 25.0463C14.6088 24.5838 14.2413 24.5026 13.665 24.3588C13.0425 24.1988 12.77 24.1351 12.5625 23.9913C12.427 23.9073 12.3159 23.7892 12.2402 23.6488C12.1645 23.5085 12.127 23.3507 12.1313 23.1913C12.1313 22.3613 12.9137 21.9938 13.6812 21.9938C13.9525 21.9938 14.4963 22.0413 14.8312 22.3938C15.0562 22.6488 15.0712 22.9201 15.0875 23.0963H14.4963C14.465 22.5838 14.0337 22.4726 13.6337 22.4726C13.0737 22.4726 12.7213 22.7288 12.7213 23.1288C12.7213 23.4963 12.9625 23.6076 13.4587 23.7363C14.4325 23.9913 14.545 24.0076 14.7837 24.1676C15.1675 24.4226 15.1838 24.8063 15.1838 24.9826C15.1838 25.7013 14.6237 26.2613 13.57 26.2613C13.2662 26.2613 12.6262 26.2126 12.3075 25.7976C12.0675 25.4938 12.0675 25.1738 12.0675 24.9663H12.6587ZM16.6537 22.0738V24.5988C16.6537 25.0301 16.75 25.2226 16.8288 25.3338C17.0863 25.6701 17.485 25.7338 17.7575 25.7338C18.86 25.7338 18.86 24.8713 18.86 24.5663V22.0751H19.4037V24.6001C19.4037 24.8238 19.4037 25.2713 19.0675 25.6876C18.6675 26.1988 18.045 26.2463 17.7412 26.2463C17.3575 26.2463 16.67 26.1338 16.3038 25.5913C16.175 25.4151 16.0625 25.1751 16.0625 24.5676V22.0751L16.6537 22.0738ZM20.5863 26.1651H21.145V22.0738H20.5863V26.1651ZM23.3512 26.1651V22.5526H21.9762V22.0738H25.2687V22.5526H23.895V26.1651H23.3512ZM25.9562 22.0738H28.5138V22.5526H26.5162V23.8313H28.4175V24.3113H26.5162V25.6701H28.5613V26.1651H25.9562V22.0738Z" fill="#48B5E5"/>
</svg>
