<svg width="40" height="40" viewBox="0 0 40 40" fill="none" xmlns="http://www.w3.org/2000/svg">
<g clip-path="url(#clip0_56_2054)">
<path d="M16.2116 13.84L20.1083 17.7366C20.7141 18.3386 21.5334 18.6765 22.3874 18.6765C23.2415 18.6765 24.0608 18.3386 24.6666 17.7366L35.6433 6.74331C35.7203 6.67185 35.8215 6.63215 35.9266 6.63215C36.0317 6.63215 36.1329 6.67185 36.2099 6.74331L37.9716 8.50498C38.1199 8.65497 38.3249 8.73831 38.5383 8.73164C38.6394 8.75497 38.7411 8.75497 38.8433 8.73164C38.9988 8.66816 39.1306 8.55781 39.2206 8.41594C39.3105 8.27406 39.3539 8.1077 39.3449 7.93997V1.47331C39.3449 1.25893 39.2598 1.05332 39.1082 0.90173C38.9566 0.750139 38.751 0.664975 38.5366 0.664975H32.0699C31.8997 0.65226 31.7297 0.693792 31.5845 0.783615C31.4393 0.873439 31.3263 1.00694 31.2616 1.16498C31.199 1.31142 31.1826 1.47345 31.2144 1.62948C31.2463 1.78551 31.325 1.92812 31.4399 2.03831L33.3483 3.88164C33.387 3.91796 33.4179 3.96185 33.439 4.01058C33.4601 4.05932 33.471 4.11186 33.471 4.16498C33.471 4.21809 33.4601 4.27063 33.439 4.31937C33.4179 4.3681 33.387 4.41199 33.3483 4.44831L28.4983 9.29831C24.1449 -1.02336 10.2533 -2.76169 3.49328 6.16664C1.50328 8.79316 0.463797 12.0174 0.544942 15.3116C0.548276 15.8516 0.580498 16.3905 0.641609 16.9283C0.689488 17.3224 0.880733 17.6852 1.17889 17.9474C1.47704 18.2096 1.86125 18.3529 2.25828 18.35H2.45161C2.66294 18.326 2.86745 18.2605 3.05343 18.1573C3.23941 18.0541 3.4032 17.9153 3.53543 17.7487C3.66765 17.5821 3.7657 17.391 3.82396 17.1865C3.88222 16.9819 3.89954 16.7679 3.87494 16.5566C3.84978 16.1148 3.84978 15.6718 3.87494 15.23C4.16328 6.44997 13.8499 1.27164 21.3099 5.90998C23.5069 7.27632 25.1747 9.34839 26.0399 11.7866L22.6783 15.2C22.5985 15.2726 22.4945 15.3128 22.3866 15.3128C22.2787 15.3128 22.1747 15.2726 22.0949 15.2L18.1999 11.27C17.5942 10.668 16.7748 10.3301 15.9208 10.3301C15.0667 10.3301 14.2474 10.668 13.6416 11.27L1.03161 23.8633C0.729483 24.1676 0.560629 24.5795 0.562191 25.0084C0.563754 25.4372 0.735606 25.8478 1.03994 26.15C1.34428 26.4521 1.75617 26.621 2.185 26.6194C2.61383 26.6178 3.02448 26.446 3.32661 26.1416L4.26494 25.205C5.66477 26.7137 7.35703 27.9218 9.23867 28.7556C11.1203 29.5894 13.152 30.0315 15.2099 30.055C18.424 30.0622 21.55 29.0049 24.0999 27.0483C24.1748 26.9859 24.2692 26.9518 24.3666 26.9518C24.464 26.9518 24.5584 26.9859 24.6333 27.0483L26.8966 29.3116C26.9514 29.3649 26.9898 29.4328 27.0072 29.5072C27.0247 29.5817 27.0204 29.6596 26.9949 29.7316C26.841 30.1625 26.8125 30.6282 26.9129 31.0746C27.0132 31.521 27.2381 31.9297 27.5616 32.2533L33.8333 38.5416C35.5066 40.3833 38.5466 39.7216 39.3049 37.35C39.494 36.7579 39.5084 36.1239 39.3464 35.5238C39.1844 34.9238 38.8529 34.3832 38.3916 33.9666L32.1349 27.6466C31.6782 27.1955 31.0636 26.9402 30.4216 26.935C30.1438 26.935 29.8744 26.9833 29.6133 27.08C29.5413 27.1056 29.4636 27.1102 29.3891 27.093C29.3147 27.0759 29.2468 27.0378 29.1933 26.9833L26.9299 24.72C26.8654 24.6461 26.8298 24.5514 26.8298 24.4533C26.8298 24.3552 26.8654 24.2605 26.9299 24.1866C27.9172 22.8824 28.682 21.4238 29.1933 19.87C29.2688 19.6659 29.3023 19.4486 29.2918 19.2312C29.2814 19.0139 29.2271 18.8009 29.1323 18.605C29.0375 18.4091 28.9042 18.2343 28.7402 18.0912C28.5763 17.9481 28.3852 17.8395 28.1782 17.7721C27.9713 17.7046 27.753 17.6796 27.5362 17.6985C27.3194 17.7175 27.1086 17.78 26.9166 17.8824C26.7245 17.9848 26.5551 18.1249 26.4185 18.2943C26.2819 18.4637 26.1809 18.6589 26.1216 18.8683C25.3711 21.1576 23.9167 23.1513 21.9658 24.5649C20.015 25.9785 17.6674 26.7397 15.2583 26.74C13.6334 26.7285 12.0283 26.3826 10.5429 25.7236C9.05761 25.0647 7.7239 24.1069 6.62494 22.91L15.6783 13.84C15.7521 13.7754 15.8469 13.7398 15.9449 13.7398C16.043 13.7398 16.1378 13.7754 16.2116 13.84Z" fill="#48B5E5"/>
</g>
<defs>
<clipPath id="clip0_56_2054">
<rect width="40" height="40" fill="white"/>
</clipPath>
</defs>
</svg>
