<svg width="124" height="124" viewBox="0 0 124 124" fill="none" xmlns="http://www.w3.org/2000/svg">
<path d="M107.663 106.161H20.2418C17.6849 106.161 15.5918 104.07 15.5918 101.511V38.8915C15.5918 36.3346 17.6837 34.2415 20.2418 34.2415H107.663C110.22 34.2415 112.313 36.3333 112.313 38.8915V101.513C112.312 104.07 110.22 106.161 107.663 106.161Z" fill="#FCBA7F"/>
<path d="M107.663 107.401H20.2418C16.9955 107.401 14.353 104.759 14.353 101.511V38.8915C14.353 35.6439 16.9955 33.0015 20.2418 33.0015H107.663C110.911 33.0015 113.553 35.6439 113.553 38.8915V101.513C113.553 104.759 110.911 107.401 107.663 107.401ZM20.2418 35.4815C18.3619 35.4815 16.833 37.0104 16.833 38.8915V101.513C16.833 103.393 18.3619 104.923 20.2418 104.923H107.663C109.544 104.923 111.073 103.394 111.073 101.513V38.8915C111.073 37.0116 109.544 35.4815 107.663 35.4815H20.2418Z" fill="#1F212B"/>
<path d="M58.9932 104.921V35.4814H68.9132V37.3923V104.921H58.9932Z" fill="#F69272"/>
<path d="M112.933 71.4414H72.0128C71.6705 71.4414 71.3928 71.1637 71.3928 70.8214C71.3928 70.4792 71.6705 70.2014 72.0128 70.2014H112.933C113.275 70.2014 113.553 70.4792 113.553 70.8214C113.553 71.1637 113.275 71.4414 112.933 71.4414ZM55.8928 71.4414H16.2128C15.8705 71.4414 15.5928 71.1637 15.5928 70.8214C15.5928 70.4792 15.8705 70.2014 16.2128 70.2014H55.8928C56.235 70.2014 56.5128 70.4792 56.5128 70.8214C56.5128 71.1637 56.235 71.4414 55.8928 71.4414Z" fill="#1F212B"/>
<path d="M20.6894 104.921H29.233V103.843L29.1958 98.0221C29.1772 94.9741 26.3178 92.4978 22.8408 92.5202L16.833 92.5586V101.509C16.833 103.733 18.4661 104.921 20.6894 104.921ZM103.923 92.5214H111.073V93.6002V99.8709C111.054 102.919 110.685 104.945 107.193 104.921L98.6184 104.882L98.4201 97.1379C98.4201 94.9158 101.69 92.5214 103.923 92.5214Z" fill="#FEF6AA"/>
<path d="M29.8528 106.161C29.513 106.161 29.2353 105.886 29.2328 105.545L29.368 98.2364C29.358 96.7224 28.4888 95.2889 27.2414 94.2077C25.9704 93.1078 24.2145 92.3204 22.4698 92.3464L16.193 92.4047C16.1905 92.4047 16.1942 92.4047 16.193 92.4047C15.8532 92.4047 15.5953 92.2906 15.5928 91.9496C15.5903 91.6074 15.8668 91.3284 16.2078 91.3259L22.4971 91.2812C22.5182 91.2812 22.5368 91.2812 22.5566 91.2812C24.62 91.2812 26.5693 91.9868 28.0536 93.2715C29.575 94.5883 30.4182 96.3466 30.4306 98.224L30.4728 105.538C30.4753 105.88 30.1987 106.159 29.8565 106.161C29.8553 106.161 29.854 106.161 29.8528 106.161Z" fill="#1F212B"/>
<path d="M22.3698 97.0188C21.8765 97.0188 21.4034 97.2148 21.0545 97.5636C20.7057 97.9124 20.5098 98.3855 20.5098 98.8788C20.5098 99.3721 20.7057 99.8452 21.0545 100.194C21.4034 100.543 21.8765 100.739 22.3698 100.739C22.8631 100.739 23.3362 100.543 23.685 100.194C24.0338 99.8452 24.2298 99.3721 24.2298 98.8788C24.2298 98.3855 24.0338 97.9124 23.685 97.5636C23.3362 97.2148 22.8631 97.0188 22.3698 97.0188Z" fill="#FEFDEF"/>
<path d="M23.0315 101.201C22.3743 101.201 21.7568 100.947 21.2893 100.486C20.8181 100.021 20.5565 99.3997 20.5528 98.7363C20.5441 97.3686 21.6514 96.2501 23.0179 96.2402C23.7346 96.2576 24.3038 96.4895 24.775 96.9545C25.2474 97.4195 25.5091 98.0407 25.5128 98.7041C25.5215 100.071 24.4154 101.19 23.0489 101.2C23.0427 101.201 23.0377 101.201 23.0315 101.201ZM23.0353 97.4815C23.0328 97.4815 23.0291 97.4815 23.0266 97.4815C22.3409 97.4852 21.7891 98.0457 21.7928 98.7301C21.7953 99.0612 21.9255 99.3725 22.1611 99.6043C22.3942 99.835 22.7042 99.9615 23.0315 99.9615C23.034 99.9615 23.0365 99.9615 23.0402 99.9615C23.7235 99.9565 24.2765 99.396 24.2728 98.7128C24.2703 98.3817 24.1401 98.0717 23.9045 97.8386C23.6701 97.6079 23.3614 97.4815 23.0353 97.4815ZM58.3728 102.441C58.0305 102.441 57.7528 102.164 57.7528 101.821V33.6215C57.7528 33.2792 58.0305 33.0015 58.3728 33.0015H68.2928C68.635 33.0015 68.9128 33.2792 68.9128 33.6215V36.1015C68.9128 36.4437 68.635 36.7215 68.2928 36.7215C67.9505 36.7215 67.6728 36.4437 67.6728 36.1015V34.2415H58.9928V101.821C58.9928 102.164 58.715 102.441 58.3728 102.441Z" fill="#1F212B"/>
<path d="M68.2932 106.161H59.6132C59.2709 106.161 58.9932 105.884 58.9932 105.541C58.9932 105.199 59.2709 104.921 59.6132 104.921H67.6732V42.3014C67.6732 41.9592 67.9509 41.6814 68.2932 41.6814C68.6354 41.6814 68.9132 41.9592 68.9132 42.3014V105.541C68.9132 105.885 68.6354 106.161 68.2932 106.161Z" fill="#1F212B"/>
<path d="M62.0109 54.7025L64.5517 54.6864C67.2797 54.669 69.5142 56.937 69.5315 59.7419L69.5687 65.7038C69.5861 68.5087 67.3814 70.8051 64.6534 70.8225L62.1114 70.8386C59.3834 70.856 57.1489 68.588 57.1315 65.7831L57.0943 59.8212C57.077 57.0163 59.2842 54.7199 62.0109 54.7025ZM64.7228 68.3251C66.0149 68.3165 67.0602 67.2315 67.0528 65.9059L67.0131 59.5707C67.0044 58.2452 65.9467 57.1738 64.6521 57.1813L61.9427 57.1986C60.6494 57.2073 59.6041 58.2923 59.6115 59.6179L59.6512 65.953C59.6599 67.2786 60.7176 68.3499 62.0122 68.3425L64.7228 68.3251Z" fill="#FEF6AA"/>
<path d="M62.0808 71.4587C60.6064 71.4587 59.2164 70.8722 58.1649 69.8045C57.1084 68.7332 56.5231 67.3059 56.5132 65.7869L56.6483 59.8548C56.6285 56.7077 58.9299 54.2946 62.0002 54.2748L64.6116 54.2363C64.5992 54.2363 64.6228 54.2363 64.6116 54.2363C67.6657 54.2363 70.1321 56.6022 70.1532 59.737L70.018 65.7063C70.0279 67.2253 69.6311 68.6526 68.5895 69.7376C67.543 70.8263 66.1467 71.4327 64.6587 71.4426L62.1167 71.4587C62.1043 71.4587 62.0932 71.4587 62.0808 71.4587ZM62.0151 55.3226C59.6293 55.3375 57.7011 57.3549 57.7147 59.8176L57.7519 65.7807C57.7594 66.9736 58.2194 68.0946 59.0465 68.9353C59.8711 69.771 60.9164 70.2261 62.1081 70.2199L64.6501 70.2038C65.8008 70.1964 66.8821 69.7264 67.6943 68.8807C68.5102 68.0301 68.9566 66.9042 68.9491 65.7101L68.9132 59.7469C68.8971 57.283 67.0011 55.2903 64.5558 55.3077L62.0151 55.3226ZM61.9977 68.9626C61.2103 68.9626 60.47 68.6513 59.9095 68.0847C59.3491 67.5167 59.0366 66.7616 59.0316 65.9581L58.9932 59.6229C58.9882 58.8194 59.2895 58.0605 59.8438 57.4851C60.4018 56.9061 61.1458 56.5849 61.9394 56.5799L64.6488 56.5626C66.2298 56.5675 67.6223 57.9005 67.6335 59.5671L67.6732 65.9022C67.6843 67.5688 66.3625 68.9341 64.7269 68.9452L62.0163 68.9626C62.0101 68.9626 62.0039 68.9626 61.9977 68.9626ZM64.6897 57.6463C64.686 57.6463 64.6922 57.6463 64.6897 57.6463H61.8997C61.4434 57.6488 61.0603 58.0084 60.7366 58.3444C60.408 58.6842 60.036 59.1628 60.0397 59.6415L60.098 65.8998C60.1017 66.3784 60.4601 66.8756 60.7924 67.2117C61.1185 67.5415 61.5451 67.7226 61.9989 67.7226C62.0027 67.7226 62.0076 67.7226 62.0113 67.7226L64.722 67.7052C65.6731 67.699 66.6155 66.8831 66.6093 65.8998L66.551 59.5832C66.5435 58.6048 65.6359 57.6463 64.6897 57.6463Z" fill="#1F212B"/>
<path d="M62.5565 64.6226H64.1127C64.3657 64.6226 64.5728 64.8296 64.5728 65.0826L64.5691 72.8425C64.5691 73.0955 64.362 73.3026 64.109 73.3026H62.5528C62.2999 73.3026 62.0928 73.0955 62.0928 72.8425L62.0965 65.0826C62.0965 64.8296 62.3036 64.6226 62.5565 64.6226Z" fill="#FEF6AA"/>
<path d="M64.1094 73.9227H62.5532C61.958 73.9227 61.4731 73.4378 61.4731 72.8426L61.4769 65.0827C61.4769 64.4875 61.9617 64.0027 62.5569 64.0027H64.1131C64.7083 64.0027 65.1931 64.4875 65.1931 65.0827L65.1882 72.8439C65.1882 73.4378 64.7033 73.9227 64.1094 73.9227ZM62.7131 72.6827H63.9482L63.9531 65.2427H62.7169L62.7131 72.6827Z" fill="#1F212B"/>
<path d="M51.7315 33.6214H40.2131C39.9701 33.6214 39.7729 33.423 39.7729 33.1799L39.7742 31.5816C39.7742 31.3398 39.9726 31.1414 40.2144 31.1414H51.7327C51.9758 31.1414 52.1729 31.3398 52.1729 31.5828V33.1812C52.1717 33.423 51.9733 33.6214 51.7315 33.6214Z" fill="#B3B2C3"/>
<path d="M51.7314 34.2415H40.213C39.6278 34.2415 39.1528 33.7653 39.1528 33.1813L39.1541 31.5817C39.1541 30.9976 39.6302 30.5227 40.213 30.5227H51.7314C52.3167 30.5227 52.7916 30.9989 52.7916 31.5829L52.7904 33.1825C52.7916 33.7653 52.3154 34.2415 51.7314 34.2415ZM40.3928 33.0015H51.5516L51.5528 31.7615H40.3941L40.3928 33.0015Z" fill="#1F212B"/>
<path d="M86.4517 33.6214H74.9334C74.6903 33.6214 74.4932 33.423 74.4932 33.1799L74.4944 31.5816C74.4944 31.3398 74.6928 31.1414 74.9346 31.1414H86.453C86.696 31.1414 86.8932 31.3398 86.8932 31.5828L86.8919 33.1812C86.8919 33.423 86.6935 33.6214 86.4517 33.6214Z" fill="#B3B2C3"/>
<path d="M86.4516 34.2415H74.9332C74.348 34.2415 73.873 33.7653 73.873 33.1813L73.8743 31.5817C73.8743 30.9976 74.3504 30.5227 74.9332 30.5227H86.4516C87.0369 30.5227 87.5118 30.9989 87.5118 31.5829L87.5106 33.1825C87.5118 33.7653 87.0356 34.2415 86.4516 34.2415ZM75.113 33.0015H86.2718L86.273 31.7615H75.1143L75.113 33.0015Z" fill="#1F212B"/>
<path d="M47.0429 31.1415C46.4998 26.3761 49.384 21.2215 52.4605 21.2215H73.6533C76.7372 21.2215 79.0175 26.9701 79.1738 31.1415H83.1592C82.6371 23.1819 79.4032 17.5015 72.7841 17.5015H53.3297C48.3821 17.5015 43.3787 23.1968 42.8579 31.1415H47.0429Z" fill="#B3B2C3"/>
<path d="M83.1583 31.7613H79.173C78.8394 31.7613 78.5666 31.4972 78.553 31.1649C78.398 26.9687 76.1052 21.8413 73.6525 21.8413H52.4597C51.4131 21.8413 50.5253 22.5903 49.9635 23.219C48.266 25.1211 47.3397 28.2757 47.6584 31.0707C47.6782 31.2467 47.6224 31.4216 47.5046 31.5543C47.3868 31.6857 47.2194 31.7613 47.0421 31.7613H42.8583C42.686 31.7613 42.5223 31.6907 42.4058 31.5654C42.2892 31.4402 42.2284 31.2728 42.2396 31.1004C42.7529 23.2599 47.7291 16.8813 53.3301 16.8813H72.7833C79.1767 16.8813 83.1856 22.0645 83.7771 31.1004C83.7883 31.2715 83.7275 31.4389 83.6109 31.5654C83.4944 31.6907 83.3307 31.7613 83.1583 31.7613ZM79.7583 30.5213H82.4887C82.0597 25.601 80.1873 18.1213 72.7833 18.1213H53.3301C49.1216 18.1213 44.2806 22.8433 43.5304 30.5213H46.37C46.2287 27.5776 47.2616 24.3871 49.0397 22.3944C50.0863 21.2226 51.268 20.6026 52.4597 20.6026H73.6525C77.0563 20.6013 79.4123 26.1925 79.7583 30.5213ZM98.0532 106.161H98.0495C97.7073 106.16 97.4307 105.88 97.4332 105.538L97.4741 98.2216C97.4865 96.3393 98.3719 94.5773 99.9665 93.2604C101.514 91.9832 103.548 91.2813 105.697 91.2813C105.719 91.2813 105.74 91.2813 105.761 91.2813L112.937 91.3285C113.279 91.3309 113.556 91.6099 113.553 91.9522C113.551 92.2932 113.273 92.5685 112.933 92.5685H112.929L105.754 92.5213C105.734 92.5213 105.716 92.5213 105.697 92.5213C103.835 92.5213 102.082 93.1215 100.756 94.2164C99.4495 95.2952 98.5666 96.6704 98.5579 98.1782L98.5281 105.562C98.5244 105.905 98.393 106.161 98.0532 106.161Z" fill="#1F212B"/>
<path d="M103.012 98.7023C103.009 99.1956 103.201 99.67 103.548 100.021C103.894 100.373 104.366 100.572 104.859 100.575C105.352 100.579 105.827 100.386 106.178 100.04C106.529 99.6933 106.728 99.2216 106.732 98.7283C106.735 98.235 106.543 97.7605 106.196 97.4093C105.85 97.058 105.378 96.8588 104.885 96.8553C104.392 96.8519 103.917 97.0445 103.566 97.3909C103.215 97.7373 103.015 98.209 103.012 98.7023Z" fill="#FEFDEF"/>
<path d="M104.875 101.201C104.869 101.201 104.863 101.201 104.857 101.201C103.489 101.192 102.384 100.072 102.393 98.7041C102.397 98.0407 102.658 97.4194 103.131 96.9544C103.597 96.4932 104.214 96.2402 104.869 96.2402C104.875 96.2402 104.882 96.2402 104.888 96.2402C106.255 96.2501 107.362 97.3698 107.353 98.7363C107.349 99.3997 107.087 100.021 106.615 100.486C106.149 100.948 105.531 101.201 104.875 101.201ZM103.633 98.7115C103.629 99.396 104.182 99.9565 104.867 99.9614C105.224 99.9788 105.51 99.8362 105.745 99.6043C105.979 99.3712 106.11 99.0612 106.113 98.7301C106.117 98.0456 105.564 97.4864 104.878 97.4814C104.563 97.4566 104.234 97.6067 104.001 97.8373C103.766 98.0704 103.635 98.3804 103.633 98.7115ZM68.2929 40.4414C67.9506 40.4414 67.6729 40.1637 67.6729 39.8214V37.3414C67.6729 36.9992 67.9506 36.7214 68.2929 36.7214C68.6351 36.7214 68.9129 36.9992 68.9129 37.3414V39.8214C68.9129 40.1649 68.6351 40.4414 68.2929 40.4414Z" fill="#1F212B"/>
</svg>
