<svg width="40" height="40" viewBox="0 0 40 40" fill="none" xmlns="http://www.w3.org/2000/svg">
<path d="M35.0001 26.6666V21.6666C35.0001 19.8166 33.5167 18.3333 31.6667 18.3333H21.6667V13.3333H25.0001V3.33331H15.0001V13.3333H18.3334V18.3333H8.33341C6.48341 18.3333 5.00008 19.8166 5.00008 21.6666V26.6666H1.66675V36.6666H11.6667V26.6666H8.33341V21.6666H18.3334V26.6666H15.0001V36.6666H25.0001V26.6666H21.6667V21.6666H31.6667V26.6666H28.3334V36.6666H38.3334V26.6666H35.0001ZM18.3334 6.66665H21.6667V9.99998H18.3334V6.66665ZM8.33341 33.3333H5.00008V30H8.33341V33.3333ZM21.6667 33.3333H18.3334V30H21.6667V33.3333ZM35.0001 33.3333H31.6667V30H35.0001V33.3333Z" fill="#48B5E5"/>
</svg>
