<svg width="124" height="124" viewBox="0 0 124 124" fill="none" xmlns="http://www.w3.org/2000/svg">
<path d="M111.606 59.8301C111.602 58.812 111.348 57.8101 110.865 56.9136L102.1 40.6386C100.602 37.7915 97.6512 36.0072 94.4346 36.001L71.9199 35.9688V89.2801H73.1599H105.401C108.825 89.2801 111.6 86.505 111.601 83.0813L111.606 59.8301Z" fill="#F9E65C"/>
<path d="M66.9599 23.5601H21.0799C17.6562 23.5601 14.8799 26.3364 14.8799 29.7601V88.0401C14.8799 88.7245 15.4354 89.2801 16.1199 89.2801H73.1599V29.7601C73.1599 26.3364 70.3835 23.5601 66.9599 23.5601Z" fill="#78A2D2"/>
<path d="M14.8799 70.6799V88.0399C14.8799 88.7244 15.4354 89.2799 16.1199 89.2799H73.1599V70.6799H14.8799Z" fill="#8F9EB6"/>
<path d="M102.92 42.1599H92.3802V42.7799H86.1802C84.81 42.7799 83.7002 43.8897 83.7002 45.2599V63.8599C83.7002 65.2289 84.81 66.3399 86.1802 66.3399H111.6V58.2799L102.92 42.1599Z" fill="#78CDD4"/>
<path d="M73.1599 39.6799H14.8799V57.0399H73.1599V39.6799Z" fill="#C7DFF1"/>
<path d="M111.6 66.9599H86.1801C84.4701 66.9599 83.0801 65.5699 83.0801 63.8599V45.2599C83.0801 43.55 84.4701 42.1599 86.1801 42.1599H92.3801C92.7223 42.1599 93.0001 42.4377 93.0001 42.7799C93.0001 43.1222 92.7223 43.3999 92.3801 43.3999H86.1801C85.1546 43.3999 84.3201 44.2344 84.3201 45.2599V63.8599C84.3201 64.8854 85.1546 65.7199 86.1801 65.7199H111.6C111.942 65.7199 112.22 65.9977 112.22 66.3399C112.22 66.6822 111.942 66.9599 111.6 66.9599Z" fill="#1F212B"/>
<path d="M90.5202 93.6199C92.9171 93.6199 94.8602 91.6769 94.8602 89.2799C94.8602 86.883 92.9171 84.9399 90.5202 84.9399C88.1233 84.9399 86.1802 86.883 86.1802 89.2799C86.1802 91.6769 88.1233 93.6199 90.5202 93.6199Z" fill="#CECCBE"/>
<path d="M105.401 90.5201H16.1201C14.7524 90.5201 13.6401 89.4078 13.6401 88.0401V29.7601C13.6401 25.6569 16.977 22.3201 21.0801 22.3201H66.9601C71.0633 22.3201 74.4001 25.6569 74.4001 29.7601V34.7201H94.4373C98.1251 34.7275 101.482 36.8008 103.197 40.062L111.956 56.3271C112.534 57.4009 112.834 58.6111 112.839 59.8251V83.0813C112.839 87.1832 109.503 90.5201 105.401 90.5201ZM21.0801 24.8001C18.3447 24.8001 16.1201 27.0246 16.1201 29.7601V88.0401H105.401C108.136 88.0401 110.359 85.8155 110.36 83.0813V59.8301C110.358 59.0253 110.158 58.2181 109.772 57.5026L101.008 41.2276C99.716 38.7711 97.1988 37.205 94.4323 37.2001H73.1577C72.4732 37.1988 71.9201 36.6445 71.9201 35.9601V29.7601C71.9201 27.0246 69.6956 24.8001 66.9601 24.8001H21.0801Z" fill="#1F212B"/>
<path d="M73.1599 35.96H71.9199V89.28H73.1599V35.96Z" fill="#1F212B"/>
<path d="M71.9199 70.6799H14.8799V71.9199H71.9199V70.6799Z" fill="#1F212B"/>
<path d="M20.46 83.7H15.5V76.26H20.46C21.8302 76.26 22.94 77.3698 22.94 78.74V81.22C22.94 82.5902 21.8302 83.7 20.46 83.7Z" fill="#F15B6C"/>
<path d="M106.02 76.26H110.98V83.7H106.02C104.65 83.7 103.54 82.5902 103.54 81.22V78.74C103.54 77.3698 104.65 76.26 106.02 76.26Z" fill="#F15B6C"/>
<path d="M20.4599 84.3199H15.4999C15.1576 84.3199 14.8799 84.0421 14.8799 83.6999V76.2599C14.8799 75.9177 15.1576 75.6399 15.4999 75.6399H20.4599C22.1698 75.6399 23.5599 77.0299 23.5599 78.7399V81.2199C23.5599 82.9299 22.1698 84.3199 20.4599 84.3199ZM16.1199 83.0799H20.4599C21.4854 83.0799 22.3199 82.2454 22.3199 81.2199V78.7399C22.3199 77.7144 21.4854 76.8799 20.4599 76.8799H16.1199V83.0799Z" fill="#1F212B"/>
<path d="M110.98 84.3199H106.02C104.31 84.3199 102.92 82.9299 102.92 81.2199V78.7399C102.92 77.0299 104.31 75.6399 106.02 75.6399H110.98C111.322 75.6399 111.6 75.9177 111.6 76.2599V83.6999C111.6 84.0421 111.322 84.3199 110.98 84.3199ZM106.02 76.8799C104.994 76.8799 104.16 77.7144 104.16 78.7399V81.2199C104.16 82.2454 104.994 83.0799 106.02 83.0799H110.36V76.8799H106.02Z" fill="#1F212B"/>
<path d="M35.9599 99.82C41.781 99.82 46.4999 95.1011 46.4999 89.28C46.4999 83.4589 41.781 78.74 35.9599 78.74C30.1388 78.74 25.4199 83.4589 25.4199 89.28C25.4199 95.1011 30.1388 99.82 35.9599 99.82Z" fill="#565FA1"/>
<path d="M35.9601 93.6199C38.357 93.6199 40.3001 91.6769 40.3001 89.2799C40.3001 86.883 38.357 84.9399 35.9601 84.9399C33.5632 84.9399 31.6201 86.883 31.6201 89.2799C31.6201 91.6769 33.5632 93.6199 35.9601 93.6199Z" fill="#CECCBE"/>
<path d="M35.9598 100.44C29.8057 100.44 24.7998 95.4342 24.7998 89.2801C24.7998 83.126 29.8057 78.1201 35.9598 78.1201C42.1139 78.1201 47.1198 83.126 47.1198 89.2801C47.1198 95.4342 42.1139 100.44 35.9598 100.44ZM35.9598 79.3601C30.4902 79.3601 26.0398 83.8105 26.0398 89.2801C26.0398 94.7498 30.4902 99.2001 35.9598 99.2001C41.4294 99.2001 45.8798 94.7498 45.8798 89.2801C45.8798 83.8105 41.4294 79.3601 35.9598 79.3601Z" fill="#1F212B"/>
<path d="M35.96 94.2401C33.2246 94.2401 31 92.0155 31 89.2801C31 86.5446 33.2246 84.3201 35.96 84.3201C38.6954 84.3201 40.92 86.5446 40.92 89.2801C40.92 92.0155 38.6954 94.2401 35.96 94.2401ZM35.96 85.5601C33.909 85.5601 32.24 87.2291 32.24 89.2801C32.24 91.331 33.909 93.0001 35.96 93.0001C38.011 93.0001 39.68 91.331 39.68 89.2801C39.68 87.2291 38.011 85.5601 35.96 85.5601Z" fill="#1F212B"/>
<path d="M90.52 99.82C96.3411 99.82 101.06 95.1011 101.06 89.28C101.06 83.4589 96.3411 78.74 90.52 78.74C84.6989 78.74 79.98 83.4589 79.98 89.28C79.98 95.1011 84.6989 99.82 90.52 99.82Z" fill="#565FA1"/>
<path d="M90.5199 100.44C84.3657 100.44 79.3599 95.4342 79.3599 89.2801C79.3599 83.126 84.3657 78.1201 90.5199 78.1201C96.674 78.1201 101.68 83.126 101.68 89.2801C101.68 95.4342 96.674 100.44 90.5199 100.44ZM90.5199 79.3601C85.0502 79.3601 80.5999 83.8105 80.5999 89.2801C80.5999 94.7498 85.0502 99.2001 90.5199 99.2001C95.9895 99.2001 100.44 94.7498 100.44 89.2801C100.44 83.8105 95.9895 79.3601 90.5199 79.3601Z" fill="#1F212B"/>
<path d="M90.5202 93.6199C92.9171 93.6199 94.8602 91.6769 94.8602 89.2799C94.8602 86.883 92.9171 84.9399 90.5202 84.9399C88.1233 84.9399 86.1802 86.883 86.1802 89.2799C86.1802 91.6769 88.1233 93.6199 90.5202 93.6199Z" fill="#CECCBE"/>
<path d="M90.5201 94.2401C87.7846 94.2401 85.5601 92.0155 85.5601 89.2801C85.5601 86.5446 87.7846 84.3201 90.5201 84.3201C93.2555 84.3201 95.4801 86.5446 95.4801 89.2801C95.4801 92.0155 93.2555 94.2401 90.5201 94.2401ZM90.5201 85.5601C88.4691 85.5601 86.8001 87.2291 86.8001 89.2801C86.8001 91.331 88.4691 93.0001 90.5201 93.0001C92.571 93.0001 94.2401 91.331 94.2401 89.2801C94.2401 87.2291 92.571 85.5601 90.5201 85.5601Z" fill="#1F212B"/>
<path d="M53.9399 40.9199H15.4999C15.1576 40.9199 14.8799 40.6422 14.8799 40.2999C14.8799 39.9577 15.1576 39.6799 15.4999 39.6799H53.9399C54.2821 39.6799 54.5599 39.9577 54.5599 40.2999C54.5599 40.6422 54.2821 40.9199 53.9399 40.9199Z" fill="#1F212B"/>
<path d="M72.5399 57.04H15.4999C15.1576 57.04 14.8799 56.7623 14.8799 56.42C14.8799 56.0778 15.1576 55.8 15.4999 55.8H72.5399C72.8821 55.8 73.1599 56.0778 73.1599 56.42C73.1599 56.7623 72.8821 57.04 72.5399 57.04Z" fill="#1F212B"/>
<path d="M68.82 40.9199H67.58C67.2377 40.9199 66.96 40.6422 66.96 40.2999C66.96 39.9577 67.2377 39.6799 67.58 39.6799H68.82C69.1622 39.6799 69.44 39.9577 69.44 40.2999C69.44 40.6422 69.1622 40.9199 68.82 40.9199Z" fill="#1F212B"/>
<path d="M63.86 40.9199H57.66C57.3178 40.9199 57.04 40.6422 57.04 40.2999C57.04 39.9577 57.3178 39.6799 57.66 39.6799H63.86C64.2023 39.6799 64.48 39.9577 64.48 40.2999C64.48 40.6422 64.2023 40.9199 63.86 40.9199Z" fill="#1F212B"/>
<path d="M96.1002 43.3999H94.8602C94.518 43.3999 94.2402 43.1222 94.2402 42.7799C94.2402 42.4377 94.518 42.1599 94.8602 42.1599H96.1002C96.4425 42.1599 96.7202 42.4377 96.7202 42.7799C96.7202 43.1222 96.4425 43.3999 96.1002 43.3999Z" fill="#1F212B"/>
<path d="M99.82 43.3999H98.58C98.2377 43.3999 97.96 43.1222 97.96 42.7799C97.96 42.4377 98.2377 42.1599 98.58 42.1599H99.82C100.162 42.1599 100.44 42.4377 100.44 42.7799C100.44 43.1222 100.162 43.3999 99.82 43.3999Z" fill="#1F212B"/>
</svg>
